HIERARCHY
ROOT SpineBase
{
  OFFSET 0.000000 0.000000 0.000000
  CHANNELS 6 Xposition Yposition Zposition Zrotation Xrotation Yrotation
  JOINT SpineMid
  {
    OFFSET 0.000000 30.757121 0.000000
    CHANNELS 3 Zrotation Xrotation Yrotation
    JOINT SpineShoulder
    {
      OFFSET -0.244706 22.785331 -0.778073
      CHANNELS 3 Zrotation Xrotation Yrotation
      JOINT Neck
      {
        OFFSET -0.161726 7.519900 -0.580785
        CHANNELS 3 Zrotation Xrotation Yrotation
        JOINT Head
        {
          OFFSET 7.460923 12.518988 3.699922
          CHANNELS 3 Zrotation Xrotation Yrotation
          End Site
          {
            OFFSET 0 0 0
          }
        }
      }
      JOINT ShoulderLeft
      {
        OFFSET -5.400582 -7.133428 -16.519115
        CHANNELS 3 Zrotation Xrotation Yrotation
        JOINT ElbowLeft
        {
          OFFSET -0.480078 -27.267054 -7.666825
          CHANNELS 3 Zrotation Xrotation Yrotation
          JOINT WristLeft
          {
            OFFSET 5.550566 -25.517761 -1.422251
            CHANNELS 3 Zrotation Xrotation Yrotation
            JOINT HandLeft
            {
              OFFSET 0.653965 -8.886469 -0.484241
              CHANNELS 3 Zrotation Xrotation Yrotation
              JOINT HandTipLeft
              {
                OFFSET 1.879105 -6.704952 1.593311
                CHANNELS 3 Zrotation Xrotation Yrotation
                End Site
                {
                  OFFSET 0 0 0
                }
              }
              JOINT ThumbLeft
              {
                OFFSET 0.426324 2.562370 1.217725
                CHANNELS 3 Zrotation Xrotation Yrotation
                End Site
                {
                  OFFSET 0 0 0
                }
              }
            }
          }
        }
      }
      JOINT ShoulderRight
      {
        OFFSET 17.373774 -6.080584 5.877666
        CHANNELS 3 Zrotation Xrotation Yrotation
        JOINT ElbowRight
        {
          OFFSET -18.413942 -6.877203 -21.781624
          CHANNELS 3 Zrotation Xrotation Yrotation
          JOINT WristRight
          {
            OFFSET -5.928406 -27.106830 -3.558683
            CHANNELS 3 Zrotation Xrotation Yrotation
            JOINT HandRight
            {
              OFFSET 3.409657 -3.982363 -3.583495
              CHANNELS 3 Zrotation Xrotation Yrotation
              JOINT HandTipRight
              {
                OFFSET 0.349139 -7.477869 -4.798331
                CHANNELS 3 Zrotation Xrotation Yrotation
                End Site
                {
                  OFFSET 0 0 0
                }
              }
              JOINT ThumbRight
              {
                OFFSET 6.879346 0.304317 6.262309
                CHANNELS 3 Zrotation Xrotation Yrotation
                End Site
                {
                  OFFSET 0 0 0
                }
              }
            }
          }
        }
      }
    }
  }
  JOINT HipLeft
  {
    OFFSET -4.463513 -0.220306 -8.098926
    CHANNELS 3 Zrotation Xrotation Yrotation
    JOINT KneeLeft
    {
      OFFSET 0.356915 -41.057526 2.760354
      CHANNELS 3 Zrotation Xrotation Yrotation
      JOINT AnkleLeft
      {
        OFFSET -5.168215 -33.251812 7.206550
        CHANNELS 3 Zrotation Xrotation Yrotation
        JOINT FootLeft
        {
          OFFSET 7.253675 -4.204738 -10.425521
          CHANNELS 3 Zrotation Xrotation Yrotation
          End Site
          {
            OFFSET 0 0 0
          }
        }
      }
    }
  }
  JOINT HipRight
  {
    OFFSET 2.989813 1.536177 0.731441
    CHANNELS 3 Zrotation Xrotation Yrotation
    JOINT KneeRight
    {
      OFFSET 4.204437 -39.957380 -6.307472
      CHANNELS 3 Zrotation Xrotation Yrotation
      JOINT AnkleRight
      {
        OFFSET -11.910039 -38.102365 6.404885
        CHANNELS 3 Zrotation Xrotation Yrotation
        JOINT FootRight
        {
          OFFSET 7.209929 -4.187134 -10.410514
          CHANNELS 3 Zrotation Xrotation Yrotation
          End Site
          {
            OFFSET 0 0 0
          }
        }
      }
    }
  }
}
MOTION
Frames: 13
Frame Time: 0.033333
72.707399 87.885411 349.835712 -0.169453 0.231459 -28.920846 0.260255 -0.120644 28.921462 -0.000000 0.000000 0.000000 -3.781065 -0.206490 1.210904 0.000000 0.000000 0.000000 -4.840231 -2.627055 1.304358 4.751015 0.647071 -1.918569 -4.194110 -6.818995 -0.192043 8.039653 9.142564 0.502318 0.000000 0.000000 0.000000 0.000000 0.000000 0.000000 -0.000000 0.000000 0.000000 -0.000000 0.000000 0.000000 -34.228234 -30.115346 -8.355598 31.077739 -11.639939 -15.768312 0.000000 0.000000 0.000000 0.000000 0.000000 0.000000 -2.602285 1.955302 28.894101 1.603297 0.474878 -0.434838 -0.691062 -3.240893 2.798678 0.000000 0.000000 0.000000 -6.413110 -3.404914 29.933460 14.716663 -1.418564 0.439360 -7.292676 0.965051 -1.440954 0.000000 0.000000 0.000000
73.229087 87.860942 349.986915 -0.051826 0.201026 -28.952750 0.142663 -0.150813 28.953028 -0.000000 0.000000 0.000000 -5.084446 0.110362 1.405143 0.000000 0.000000 0.000000 -5.683081 -2.864127 1.516749 4.654068 1.132677 -2.047437 -3.218604 -6.234849 -0.242454 6.107163 7.845384 0.232730 0.000000 0.000000 0.000000 0.000000 0.000000 0.000000 -0.000000 0.000000 0.000000 -0.000000 0.000000 0.000000 -36.372910 -30.893028 -7.725945 31.019848 -6.369915 -14.562447 0.000000 0.000000 0.000000 0.000000 0.000000 0.000000 -3.038310 1.559002 28.886866 2.051395 0.873657 -0.431115 -0.783494 -3.398142 3.207340 0.000000 0.000000 0.000000 -6.927978 -4.072382 29.976563 15.376716 -1.088841 0.307913 -9.267731 0.399311 2.567348 0.000000 0.000000 0.000000
73.735667 87.858226 350.161004 0.141762 0.137162 -28.663431 -0.058599 -0.188351 28.663165 -0.000000 0.000000 0.000000 -6.087171 0.311205 1.580354 0.000000 0.000000 0.000000 -6.375575 -3.116558 1.686901 4.353929 1.554878 -2.138232 -2.263121 -5.975498 -0.312619 5.591322 7.764169 0.258967 0.000000 0.000000 0.000000 0.000000 0.000000 0.000000 -0.000000 0.000000 0.000000 -0.000000 0.000000 0.000000 -38.011894 -31.503834 -7.281015 32.875836 -9.828319 -18.101147 0.000000 0.000000 0.000000 0.000000 0.000000 0.000000 -3.572400 1.219019 28.558001 2.469756 1.288585 -0.444916 -0.836519 -3.627648 3.595631 0.000000 0.000000 0.000000 -7.754368 -4.552059 29.736923 16.135862 -1.005452 0.181841 -12.758226 0.355286 12.164821 0.000000 0.000000 0.000000
74.127010 87.882421 350.357105 0.335466 0.050363 -28.795264 -0.269727 -0.205722 28.794632 -0.000000 0.000000 0.000000 -6.922089 0.494975 1.718938 0.000000 0.000000 0.000000 -6.939441 -3.301510 1.824181 3.947190 1.662763 -2.243973 -1.202814 -7.139915 -0.499061 2.620773 11.427836 0.774609 0.000000 0.000000 0.000000 0.000000 0.000000 0.000000 -0.000000 0.000000 0.000000 -0.000000 0.000000 0.000000 -39.645676 -32.230557 -7.203884 35.559709 -3.849183 -18.881026 0.000000 0.000000 0.000000 0.000000 0.000000 0.000000 -4.044924 0.929962 28.656975 2.756768 1.752805 -0.484833 -0.836773 -3.935244 3.921302 0.000000 0.000000 0.000000 -8.798166 -4.662987 29.984229 16.898615 -1.399829 0.103885 -18.389591 0.364238 29.983022 0.000000 0.000000 0.000000
74.488839 87.926382 350.568588 0.476537 -0.006773 -28.749269 -0.421055 -0.223264 28.748476 -0.000000 0.000000 0.000000 -7.092028 0.218354 1.910282 0.000000 0.000000 0.000000 -7.380747 -3.476455 1.929181 3.552119 1.737858 -2.328669 0.153379 -8.983121 -0.743799 1.048040 14.312923 1.253323 0.000000 0.000000 0.000000 0.000000 0.000000 0.000000 -0.000000 0.000000 0.000000 -0.000000 0.000000 0.000000 -41.562781 -33.228983 -7.663119 38.346822 -3.941551 -21.775277 0.000000 0.000000 0.000000 0.000000 0.000000 0.000000 -4.452099 0.716143 28.582201 3.023082 2.160777 -0.524070 -0.839105 -4.249858 4.207997 0.000000 0.000000 0.000000 -9.186484 -5.094821 29.931686 17.308056 -1.166857 0.015733 -28.235087 -5.969638 64.026921 0.000000 0.000000 0.000000
74.851260 87.988031 350.762120 0.653377 -0.074258 -28.792543 -0.608368 -0.249613 28.791641 -0.000000 0.000000 0.000000 -7.005211 -0.076237 2.039486 0.000000 0.000000 0.000000 -7.748343 -3.619974 2.015800 3.126330 1.800872 -2.388258 2.095871 -9.218184 -0.799798 -2.169895 16.367997 2.029412 0.000000 0.000000 0.000000 0.000000 0.000000 0.000000 -0.000000 0.000000 0.000000 -0.000000 0.000000 0.000000 -42.653577 -33.777839 -7.918744 39.806072 -2.852500 -22.850528 0.000000 0.000000 0.000000 0.000000 0.000000 0.000000 -4.908202 0.484001 28.593960 3.329728 2.494831 -0.544506 -0.855544 -4.499212 4.425908 0.000000 0.000000 0.000000 -9.635644 -5.423577 29.980848 17.683047 -1.058853 -0.054771 -31.499050 -10.803972 81.411099 0.000000 0.000000 0.000000
75.168839 88.062806 350.886442 0.818420 -0.101826 -28.908473 -0.765667 -0.306494 28.907153 -0.000000 0.000000 0.000000 -7.520471 -0.152725 2.220429 0.000000 0.000000 0.000000 -8.058306 -3.778597 2.086373 2.869021 1.857591 -2.455945 4.163857 -9.204768 -0.810209 -5.084264 16.912947 2.463194 0.000000 0.000000 0.000000 0.000000 0.000000 0.000000 -0.000000 0.000000 0.000000 -0.000000 0.000000 0.000000 -43.333944 -34.141635 -8.181539 40.454735 -2.580086 -23.381994 0.000000 0.000000 0.000000 0.000000 0.000000 0.000000 -5.281350 0.207069 28.676487 3.586074 2.784693 -0.559230 -0.842640 -4.679411 4.564823 0.000000 0.000000 0.000000 -10.024243 -5.693864 30.101556 17.987390 -1.023878 -0.106568 -32.168756 -11.745481 86.148163 0.000000 0.000000 0.000000
75.399478 88.135744 350.906710 0.922017 -0.087723 -29.271232 -0.847189 -0.374286 29.269171 -0.000000 0.000000 0.000000 -7.763468 -0.434699 2.431561 0.000000 0.000000 0.000000 -8.296260 -3.914838 2.139286 2.656143 1.810433 -2.534451 6.513716 -8.593941 -0.764505 -8.372853 15.972426 2.515894 0.000000 0.000000 0.000000 0.000000 0.000000 0.000000 -0.000000 0.000000 0.000000 -0.000000 0.000000 0.000000 -43.592033 -34.303946 -8.379658 41.144435 -2.000876 -23.826897 0.000000 0.000000 0.000000 0.000000 0.000000 0.000000 -5.476068 -0.121536 29.006960 3.751962 3.034456 -0.568342 -0.810220 -4.760473 4.650123 0.000000 0.000000 0.000000 -10.302706 -5.827231 30.480505 18.187879 -1.144051 -0.124270 -31.620134 -9.408825 81.784772 0.000000 0.000000 0.000000
75.539945 88.188065 350.843221 0.944236 -0.036684 -29.854107 -0.837208 -0.438206 29.851208 -0.000000 0.000000 0.000000 -7.637681 -0.904310 2.639869 0.000000 0.000000 0.000000 -8.472300 -4.055108 2.176056 2.762878 1.787501 -2.624789 8.455559 -8.204057 -0.732122 -10.744406 14.877220 2.441617 0.000000 0.000000 0.000000 0.000000 0.000000 0.000000 -0.000000 0.000000 0.000000 -0.000000 0.000000 0.000000 -43.442361 -34.321999 -8.687133 40.477949 -1.574183 -22.892343 0.000000 0.000000 0.000000 0.000000 0.000000 0.000000 -5.478272 -0.450905 29.563509 3.803334 3.216261 -0.575293 -0.745519 -4.748409 4.681844 0.000000 0.000000 0.000000 -10.452020 -5.826352 31.091438 18.287506 -1.398348 -0.110248 -25.509782 0.128762 55.823506 0.000000 0.000000 0.000000
75.589743 88.197665 350.681835 0.860715 0.086500 -29.725343 -0.704587 -0.501879 29.721607 -0.000000 0.000000 0.000000 -6.977633 -1.534823 2.794880 0.000000 0.000000 0.000000 -8.596594 -4.205089 2.199090 3.132826 1.860786 -2.706142 10.316017 -7.484871 -0.690406 -12.732785 13.992015 2.511822 0.000000 0.000000 0.000000 0.000000 0.000000 0.000000 -0.000000 0.000000 0.000000 -0.000000 0.000000 0.000000 -42.804616 -34.115367 -8.917624 38.959140 -1.464197 -21.180049 0.000000 0.000000 0.000000 0.000000 0.000000 0.000000 -5.318965 -0.634862 29.420242 3.743311 3.327658 -0.593136 -0.632113 -4.729385 4.683780 0.000000 0.000000 0.000000 -10.469256 -5.689293 30.988313 18.312784 -1.625229 -0.087709 -15.473187 4.304867 25.932912 0.000000 0.000000 0.000000
75.724871 88.245826 350.618160 0.914815 0.138949 -29.895014 -0.723868 -0.576390 29.890263 -0.000000 0.000000 0.000000 -6.544047 -1.695054 2.766799 0.000000 0.000000 0.000000 -8.661637 -4.230720 2.213834 3.491948 1.683102 -2.808932 12.689316 -7.626974 -0.685465 -15.057147 12.842552 2.481163 0.000000 0.000000 0.000000 0.000000 0.000000 0.000000 -0.000000 0.000000 0.000000 -0.000000 0.000000 0.000000 -42.159192 -34.007418 -9.511716 37.474195 0.509664 -18.699796 0.000000 0.000000 0.000000 0.000000 0.000000 0.000000 -5.373032 -0.866645 29.568312 3.750809 3.498344 -0.615653 -0.534388 -4.781201 4.731742 0.000000 0.000000 0.000000 -10.766699 -5.654972 31.195973 18.490895 -1.904340 -0.081754 -13.297695 2.401674 16.980587 0.000000 0.000000 0.000000
75.843621 88.297556 350.576973 0.957306 0.158622 -29.985269 -0.749936 -0.615801 29.979913 -0.000000 0.000000 0.000000 -6.160504 -1.817731 2.732679 0.000000 0.000000 0.000000 -8.669483 -4.196123 2.217619 4.251233 1.536636 -2.910880 13.913019 -7.356292 -0.645670 -16.521998 12.164869 2.567332 0.000000 0.000000 0.000000 0.000000 0.000000 0.000000 -0.000000 0.000000 0.000000 -0.000000 0.000000 0.000000 -41.115670 -33.687581 -9.922150 34.982565 3.194971 -14.996636 0.000000 0.000000 0.000000 0.000000 0.000000 0.000000 -5.437135 -1.000779 29.644700 3.730132 3.604438 -0.637622 -0.436459 -4.821051 4.783037 0.000000 0.000000 0.000000 -11.089452 -5.578932 31.332532 18.681674 -2.185523 -0.076507 -14.392999 -0.413328 15.799854 0.000000 0.000000 0.000000
75.877405 88.330053 350.575470 0.909328 0.122240 -30.270732 -0.723754 -0.563929 30.266201 -0.000000 0.000000 0.000000 -5.517373 -2.212285 2.779383 0.000000 0.000000 0.000000 -8.623707 -4.164886 2.207931 5.215258 1.408422 -3.013813 14.832738 -6.587228 -0.609551 -15.661985 10.306145 2.384606 0.000000 0.000000 0.000000 0.000000 0.000000 0.000000 -0.000000 0.000000 0.000000 -0.000000 0.000000 0.000000 -39.740055 -33.166276 -10.110666 31.687355 2.668344 -11.531561 0.000000 0.000000 0.000000 0.000000 0.000000 0.000000 -5.362272 -0.899862 29.943383 3.481705 3.592223 -0.682922 -0.255589 -4.855351 4.809241 0.000000 0.000000 0.000000 -11.184200 -5.448172 31.658425 18.737589 -2.378878 -0.061313 -17.503738 -2.135986 23.189191 0.000000 0.000000 0.000000
